# Blender v2.93.6 OBJ File: ''
# www.blender.org
mtllib Chest.mtl
o chest
v -1.831432 1.159924 0.671977
v -0.966259 1.159926 -1.548401
v -1.720439 1.392768 0.345766
v -1.105941 1.395307 -1.231649
v 1.883564 1.162691 -0.450975
v 1.018308 1.155989 1.769341
v 1.153435 1.384622 1.453662
v 1.768323 1.404279 -0.123780
v -0.102743 0.839075 1.191713
v -0.075315 1.458703 1.236213
v -0.709293 1.458703 0.996386
v -0.669473 0.839075 0.976688
v 0.923755 -0.003704 1.613930
v 1.707148 -0.003704 -0.393319
v -0.869088 -0.003704 -1.387673
v -1.652464 -0.003704 0.619582
v -1.851272 1.495010 0.677623
v -1.831432 1.159924 0.671977
v -1.720439 1.392768 0.345766
v -1.814255 1.858936 0.543902
v -1.699313 1.745077 0.262022
v -1.744890 2.180022 0.321834
v -1.645835 1.991015 0.089931
v -1.608721 2.400810 -0.040328
v -1.552787 2.121530 -0.156688
v -1.451933 2.463535 -0.458813
v -1.439121 2.155861 -0.459630
v -1.285396 2.411206 -0.874834
v -1.319609 2.132780 -0.758724
v -1.140564 2.180023 -1.231569
v -1.221801 1.992725 -0.998538
v -1.043015 1.861076 -1.443841
v -1.147229 1.749338 -1.160536
v -0.978743 1.495014 -1.565222
v -1.105941 1.395307 -1.231649
v -0.966259 1.159926 -1.548401
v 1.899243 1.500544 -0.456946
v 1.883564 1.162691 -0.450975
v 1.768323 1.404279 -0.123780
v 1.862644 1.923731 -0.323108
v 1.748729 1.815140 -0.043078
v 1.792760 2.241605 -0.098378
v 1.695864 1.998957 0.128513
v 1.657068 2.412308 0.262820
v 1.603859 2.136084 0.372534
v 1.499677 2.462358 0.683304
v 1.490146 2.156238 0.675837
v 1.333699 2.397354 1.097285
v 1.370549 2.119002 0.974579
v 1.188342 2.174289 1.454947
v 1.271575 1.985582 1.217000
v 1.091282 1.852130 1.664536
v 1.196328 1.738287 1.379504
v 1.026571 1.487129 1.785777
v 1.153435 1.384622 1.453662
v 1.018308 1.155989 1.769341
v -1.720439 1.392768 0.345766
v -1.105941 1.395307 -1.231649
v -1.699313 1.745077 0.262022
v -1.645835 1.991015 0.089931
v -1.147229 1.749338 -1.160536
v -1.221801 1.992725 -0.998538
v -1.439121 2.155861 -0.459630
v -1.319609 2.132780 -0.758724
v -1.552787 2.121530 -0.156688
v 1.768323 1.404279 -0.123780
v 1.153435 1.384622 1.453662
v 1.196328 1.738287 1.379504
v 1.271575 1.985582 1.217000
v 1.748729 1.815140 -0.043078
v 1.695864 1.998957 0.128513
v 1.490146 2.156238 0.675837
v 1.370549 2.119002 0.974579
v 1.603859 2.136084 0.372534
v 1.055122 2.520990 0.504934
v 1.499677 2.462358 0.683304
v 1.333699 2.397354 1.097285
v 0.888322 2.456557 0.918781
v 1.017452 2.403735 0.489302
v 0.742138 2.234063 1.276306
v 1.188342 2.174289 1.454947
v 0.869082 2.346347 0.854373
v 0.032106 2.439197 0.115983
v 0.648229 1.912173 1.487583
v 1.091282 1.852130 1.664536
v 0.738916 2.148180 1.169706
v -0.119088 2.382063 0.497464
v -0.953202 2.403751 -0.257494
v -0.251320 2.184150 0.827160
v -1.095285 2.346871 0.110163
v -0.991062 2.521007 -0.272575
v 0.654823 1.861484 1.355855
v -1.151337 2.457145 0.143982
v -1.451933 2.463535 -0.458813
v -1.608721 2.400810 -0.040328
v -1.744890 2.180022 0.321834
v -1.219150 2.149211 0.428086
v -1.290982 2.235221 0.504220
v -1.814255 1.858936 0.543902
v -1.284513 1.862754 0.621721
v -1.365459 1.913599 0.723320
v -1.851272 1.495010 0.677623
v -0.329115 1.897573 1.024887
v -1.321308 1.410462 0.737336
v -1.407586 1.363258 0.854073
v -1.831432 1.159924 0.671977
v 0.599297 1.408953 1.463985
v 0.586666 1.361564 1.610512
v 1.018308 1.155989 1.769341
v 1.026571 1.487129 1.785777
v 1.657068 2.412308 0.262820
v 1.499677 2.462358 0.683304
v 1.055122 2.520990 0.504934
v 1.216058 2.470367 0.086150
v 1.355287 2.240892 -0.273355
v 1.792760 2.241605 -0.098378
v 1.862644 1.923731 -0.323108
v 1.160106 2.358647 0.119673
v 1.017452 2.403735 0.489302
v 0.032106 2.439197 0.115983
v 1.283596 2.154262 -0.197606
v 1.430258 1.922749 -0.495584
v 1.899243 1.500544 -0.456946
v 1.349350 1.870904 -0.394017
v 1.471951 1.383855 -0.626922
v 1.883564 1.162691 -0.450975
v 1.385716 1.430145 -0.510169
v 0.393766 1.905739 -0.797252
v -0.535262 1.428668 -1.236954
v -0.522691 1.382197 -1.383504
v -0.966259 1.159926 -1.548401
v -0.978743 1.495014 -1.565222
v -1.043015 1.861076 -1.443841
v -0.590308 1.869667 -1.128269
v 0.315584 2.189217 -0.596623
v -0.583761 1.921360 -1.259964
v -0.674736 2.153264 -0.939319
v 0.183825 2.393856 -0.267572
v -0.678109 2.239771 -1.045538
v -1.140564 2.180023 -1.231569
v -0.804383 2.358155 -0.624582
v -0.953202 2.403751 -0.257494
v -0.823730 2.469815 -0.688698
v -1.285396 2.411206 -0.874834
v -0.991062 2.521007 -0.272575
v -1.451933 2.463535 -0.458813
v -0.669473 0.839075 0.976688
v -0.196108 0.917447 1.351340
v -0.102743 0.839075 1.191713
v -0.075315 1.458703 1.236213
v -0.710934 0.917447 1.155294
v -0.709293 1.458703 0.996386
v -0.163608 1.391835 1.380050
v -0.741360 1.391835 1.160872
v -1.831432 1.159924 0.671977
v 1.018308 1.155989 1.769341
v 0.585647 0.924215 1.570619
v 0.923755 -0.003704 1.613930
v -1.355246 0.924029 0.832595
v -1.652464 -0.003704 0.619582
v 0.561454 0.225608 1.488849
v -1.279487 0.225429 0.789062
v 1.115934 0.924118 1.433304
v 0.923755 -0.003704 1.613930
v 1.018308 1.155989 1.769341
v 1.883564 1.162691 -0.450975
v 1.049023 0.225514 1.361099
v 1.707148 -0.003704 -0.393319
v 1.717998 0.924118 -0.101608
v 1.615209 0.225514 -0.087166
v -0.869088 -0.003704 -1.387673
v -0.966259 1.159926 -1.548401
v -1.066832 0.924118 -1.195351
v -1.831432 1.159924 0.671977
v -0.999082 0.225514 -1.119893
v -1.675020 0.924118 0.365245
v -1.574092 0.225514 0.349452
v -1.652464 -0.003704 0.619582
v 1.707148 -0.003704 -0.393319
v 1.883564 1.162691 -0.450975
v 1.461527 0.924210 -0.592401
v -0.966259 1.159926 -1.548401
v 1.380395 0.225602 -0.546376
v -0.496331 0.924022 -1.335790
v -0.460623 0.225423 -1.245240
v -0.869088 -0.003704 -1.387673
vt 0.246084 0.513580
vt 0.015640 0.424711
vt 0.318505 0.426268
vt 0.066596 0.513946
vt 0.066596 0.513946
vt 0.015640 0.424711
vt 0.318504 0.426268
vt 0.246084 0.513580
vt 0.856692 0.966777
vt 0.740380 0.966777
vt 0.747429 0.860446
vt 0.851441 0.860446
vt 0.003052 0.006762
vt 0.003052 0.006762
vt 0.717705 0.009010
vt 0.717705 0.009010
vt 0.664015 0.423975
vt 0.712940 0.515547
vt 0.641606 0.515547
vt 0.606352 0.515547
vt 0.628879 0.423978
vt 0.576520 0.515547
vt 0.592908 0.423978
vt 0.547534 0.515547
vt 0.553225 0.423978
vt 0.513542 0.515547
vt 0.513542 0.423978
vt 0.473726 0.515547
vt 0.476650 0.423978
vt 0.439751 0.515547
vt 0.439759 0.423978
vt 0.412588 0.515547
vt 0.403143 0.423978
vt 0.393220 0.515547
vt 0.370223 0.423975
vt 0.323645 0.515547
vt 0.664015 0.423975
vt 0.712940 0.515547
vt 0.641606 0.515547
vt 0.606352 0.515547
vt 0.628879 0.423978
vt 0.576520 0.515547
vt 0.592908 0.423978
vt 0.547534 0.515547
vt 0.553225 0.423978
vt 0.513542 0.515547
vt 0.513542 0.423978
vt 0.473726 0.515547
vt 0.476650 0.423978
vt 0.439751 0.515547
vt 0.439759 0.423978
vt 0.412588 0.515547
vt 0.403143 0.423978
vt 0.385843 0.515547
vt 0.370223 0.423975
vt 0.323645 0.515547
vt 0.568528 0.769077
vt 0.124771 0.866902
vt 0.592252 0.867770
vt 0.518821 0.685026
vt 0.147141 0.767621
vt 0.196243 0.684441
vt 0.356657 0.628688
vt 0.267732 0.636577
vt 0.446021 0.640421
vt 0.582219 0.771397
vt 0.605531 0.870554
vt 0.138007 0.863836
vt 0.532921 0.686883
vt 0.160795 0.745132
vt 0.210315 0.682312
vt 0.371805 0.628560
vt 0.460646 0.641285
vt 0.282342 0.635447
vt 0.716659 0.635655
vt 0.716659 0.534480
vt 0.640653 0.534480
vt 0.640653 0.635655
vt 0.622192 0.534943
vt 0.640653 0.736830
vt 0.716659 0.736830
vt 0.622192 0.629364
vt 0.364129 0.534943
vt 0.640653 0.800178
vt 0.716659 0.830224
vt 0.622192 0.723785
vt 0.364129 0.629364
vt 0.106066 0.534943
vt 0.364129 0.723785
vt 0.106066 0.629364
vt 0.087605 0.534480
vt 0.622192 0.810944
vt 0.087605 0.635655
vt 0.003771 0.534480
vt 0.003771 0.635655
vt 0.003771 0.736830
vt 0.106066 0.723785
vt 0.087605 0.736830
vt 0.003771 0.830224
vt 0.106066 0.810944
vt 0.087605 0.800178
vt 0.003771 0.873945
vt 0.364129 0.810944
vt 0.106066 0.898104
vt 0.087605 0.918924
vt 0.003771 0.995259
vt 0.622192 0.898104
vt 0.640653 0.918924
vt 0.716659 0.995259
vt 0.716659 0.873945
vt 0.640653 0.534479
vt 0.716659 0.534479
vt 0.716659 0.635655
vt 0.640653 0.635655
vt 0.640653 0.736830
vt 0.716659 0.736830
vt 0.716659 0.830224
vt 0.622192 0.629364
vt 0.622192 0.534943
vt 0.364129 0.534943
vt 0.622192 0.723785
vt 0.640653 0.800178
vt 0.716659 0.873945
vt 0.622192 0.810944
vt 0.640653 0.918924
vt 0.716659 0.995259
vt 0.622192 0.898104
vt 0.364129 0.810944
vt 0.106066 0.898104
vt 0.087605 0.918924
vt 0.003771 0.995259
vt 0.003771 0.873945
vt 0.003771 0.830224
vt 0.106066 0.810944
vt 0.364129 0.723785
vt 0.087605 0.800178
vt 0.106066 0.723785
vt 0.364129 0.629364
vt 0.087605 0.736830
vt 0.003771 0.736830
vt 0.106066 0.629364
vt 0.106066 0.534943
vt 0.087605 0.635655
vt 0.003771 0.635655
vt 0.087605 0.534479
vt 0.003771 0.534479
vt 0.981833 0.214549
vt 0.963799 0.243750
vt 0.740575 0.214549
vt 0.998823 0.483445
vt 0.754860 0.243750
vt 0.723798 0.483445
vt 0.975160 0.436506
vt 0.744933 0.436506
vt 0.630907 0.331446
vt 0.717705 0.413852
vt 0.003052 0.418610
vt 0.717705 0.009010
vt 0.089347 0.331446
vt 0.003052 0.006762
vt 0.630907 0.084031
vt 0.089347 0.084031
vt 0.717705 0.413852
vt 0.717705 0.009010
vt 0.630907 0.331446
vt 0.003052 0.418610
vt 0.630907 0.084031
vt 0.003052 0.006762
vt 0.089347 0.331446
vt 0.089347 0.084031
vt 0.089347 0.331446
vt 0.003052 0.418610
vt 0.003052 0.006762
vt 0.717705 0.413852
vt 0.089347 0.084031
vt 0.630907 0.331446
vt 0.630907 0.084031
vt 0.717705 0.009010
vt 0.630907 0.331446
vt 0.717705 0.413852
vt 0.717705 0.009010
vt 0.003052 0.418610
vt 0.630907 0.084031
vt 0.089347 0.331446
vt 0.089347 0.084031
vt 0.003052 0.006762
vn -0.9326 -0.0036 -0.3608
vn -0.5022 -0.0551 -0.8630
vn -0.9127 -0.0653 0.4034
vn -0.9327 -0.0034 -0.3606
vn 0.9328 0.0027 0.3605
vn 0.4030 -0.0573 0.9134
vn 0.9527 -0.0443 -0.3006
vn 0.9326 0.0025 0.3609
vn -0.8782 0.3713 0.3014
vn 0.4344 0.3563 0.8272
vn 0.4245 -0.3256 0.8449
vn -0.8903 -0.3198 0.3241
vn -0.4026 -0.0962 -0.9103
vn 0.9098 -0.0969 -0.4035
vn 0.4006 -0.0969 0.9111
vn -0.9106 -0.0962 0.4019
vn -0.9127 -0.0652 0.4034
vn -0.9121 0.2370 0.3346
vn -0.7431 0.3545 0.5675
vn -0.9317 -0.0383 -0.3612
vn -0.8054 0.5869 0.0836
vn -0.9326 -0.0001 -0.3609
vn -0.5658 0.8199 0.0873
vn -0.9323 -0.0319 -0.3603
vn -0.6711 0.6948 -0.2585
vn -0.9327 -0.0003 -0.3607
vn -0.3446 0.8260 -0.4461
vn -0.9309 -0.0348 -0.3637
vn -0.5424 0.5863 -0.6017
vn -0.9328 -0.0004 -0.3604
vn -0.1462 0.3607 -0.9211
vn -0.9310 -0.0392 -0.3630
vn -0.4509 0.2388 -0.8600
vn 0.9110 0.2451 -0.3316
vn 0.7429 0.3576 -0.5659
vn 0.9331 -0.0349 0.3578
vn 0.8051 0.5879 -0.0792
vn 0.9327 -0.0008 0.3605
vn 0.5655 0.8231 -0.0519
vn 0.9331 -0.0308 0.3584
vn 0.6707 0.6936 0.2629
vn 0.9327 -0.0009 0.3605
vn 0.3642 0.8128 0.4547
vn 0.9308 -0.0354 0.3637
vn 0.5414 0.5832 0.6057
vn 0.1606 0.3504 0.9227
vn 0.9309 -0.0407 0.3629
vn 0.4502 0.2376 0.8607
vn -0.9317 -0.0380 -0.3612
vn -0.9323 -0.0318 -0.3602
vn 0.6707 0.6936 0.2628
vn -0.0009 1.0000 0.0041
vn -0.2038 0.9424 0.2651
vn -0.1916 0.8452 0.4989
vn 0.5413 0.5832 0.6057
vn -0.1976 0.9446 0.2623
vn -0.0052 0.9999 0.0137
vn -0.5173 0.4274 0.7414
vn -0.1916 0.8452 0.4990
vn -0.1139 0.9467 0.3013
vn 0.0002 1.0000 0.0027
vn -0.2323 0.7544 0.6140
vn -0.0278 0.9429 0.3320
vn 0.0001 1.0000 0.0027
vn -0.4515 0.4607 0.7642
vn -0.0322 0.9431 0.3309
vn -0.8053 0.5869 0.0836
vn -0.1901 0.8462 0.4978
vn -0.1900 0.8462 0.4978
vn -0.1693 0.4585 0.8724
vn -0.1318 0.4284 0.8939
vn -0.3275 0.3784 0.8658
vn -0.3373 0.3482 0.8746
vn -0.3379 0.3472 0.8748
vn 0.5655 0.8231 -0.0518
vn -0.0043 0.9514 -0.3078
vn 0.1898 0.8500 -0.4914
vn 0.7429 0.3577 -0.5659
vn 0.0231 0.9448 -0.3269
vn 0.1002 0.4121 -0.9056
vn 0.1676 0.4692 -0.8670
vn 0.3371 0.3554 -0.8718
vn 0.3262 0.3874 -0.8623
vn 0.3372 0.3544 -0.8722
vn -0.5022 -0.0552 -0.8630
vn 0.4495 0.4707 -0.7592
vn 0.2328 0.7531 -0.6153
vn 0.5077 0.4347 -0.7438
vn 0.1902 0.8490 -0.4930
vn 0.1117 0.9488 -0.2956
vn -0.5424 0.5862 -0.6018
vn 0.1976 0.9465 -0.2551
vn 0.1994 0.9447 -0.2605
vn 0.1461 0.0246 0.9890
vn -0.8903 -0.3198 0.3242
vn 0.4345 0.3563 0.8272
vn -0.7784 0.0331 0.6269
vn -0.8783 0.3713 0.3014
vn -0.0231 0.2757 0.9610
vn -0.6176 0.2786 0.7355
vn -0.3638 -0.0752 0.9284
vn -0.3571 -0.0755 0.9310
vn -0.3642 -0.0641 0.9291
vn -0.3575 -0.0644 0.9317
vn 0.9304 -0.0766 0.3585
vn 0.9307 -0.0720 0.3587
vn 0.9295 -0.0767 0.3607
vn 0.9298 -0.0722 0.3609
vn -0.9304 -0.0864 -0.3563
vn -0.9127 -0.0652 0.4033
vn -0.9314 -0.0715 -0.3570
vn -0.9277 -0.0859 -0.3633
vn -0.9287 -0.0710 -0.3640
vn 0.3583 -0.0721 -0.9308
vn 0.9527 -0.0444 -0.3006
vn 0.3586 -0.0652 -0.9312
vn 0.3626 -0.0718 -0.9292
vn 0.3629 -0.0649 -0.9296
vn -0.4026 -0.0961 -0.9103
usemtl it12_mat_CHEST
s 1
f 3/1/1 2/2/2 1/3/3
f 4/4/4 2/2/2 3/1/1
f 7/5/5 6/6/6 5/7/7
f 8/8/8 7/5/5 5/7/7
f 11/9/9 10/10/10 9/11/11
f 12/12/12 11/9/9 9/11/11
f 15/13/13 14/14/14 13/15/15
f 16/16/16 15/13/13 13/15/15
f 19/17/1 18/18/17 17/19/18
f 19/17/1 17/19/18 20/20/19
f 21/21/20 19/17/1 20/20/19
f 21/21/20 20/20/19 22/22/21
f 23/23/22 21/21/20 22/22/21
f 22/22/21 24/24/23 23/23/22
f 24/24/23 25/25/24 23/23/22
f 24/24/23 26/26/25 25/25/24
f 26/26/25 27/27/26 25/25/24
f 26/26/25 28/28/27 27/27/26
f 28/28/27 29/29/28 27/27/26
f 28/28/27 30/30/29 29/29/28
f 30/30/29 31/31/30 29/29/28
f 30/30/29 32/32/31 31/31/30
f 32/32/31 33/33/32 31/31/30
f 32/32/31 34/34/33 33/33/32
f 34/34/33 35/35/4 33/33/32
f 34/34/33 36/36/2 35/35/4
f 39/37/8 38/38/7 37/39/34
f 39/37/8 37/39/34 40/40/35
f 41/41/36 39/37/8 40/40/35
f 41/41/36 40/40/35 42/42/37
f 43/43/38 41/41/36 42/42/37
f 42/42/37 44/44/39 43/43/38
f 44/44/39 45/45/40 43/43/38
f 44/44/39 46/46/41 45/45/40
f 46/46/41 47/47/42 45/45/40
f 46/46/41 48/48/43 47/47/42
f 48/48/43 49/49/44 47/47/42
f 48/48/43 50/50/45 49/49/44
f 50/50/45 51/51/42 49/49/44
f 50/50/45 52/52/46 51/51/42
f 52/52/46 53/53/47 51/51/42
f 52/52/46 54/54/48 53/53/47
f 54/54/48 55/55/5 53/53/47
f 54/54/48 56/56/6 55/55/5
f 59/57/49 58/58/4 57/59/1
f 59/57/49 60/60/22 58/58/4
f 61/61/32 58/58/4 60/60/22
f 61/61/32 60/60/22 62/62/30
f 60/60/22 63/63/26 62/62/30
f 63/63/26 64/64/28 62/62/30
f 60/60/22 65/65/50 63/63/26
f 68/66/47 67/67/5 66/68/8
f 69/69/38 68/66/47 66/68/8
f 66/68/8 70/70/36 69/69/38
f 70/70/36 71/71/42 69/69/38
f 71/71/42 72/72/38 69/69/38
f 72/72/38 73/73/44 69/69/38
f 71/71/42 74/74/40 72/72/38
f 77/75/43 76/76/51 75/77/52
f 78/78/53 77/75/43 75/77/52
f 75/77/52 79/79/52 78/78/53
f 78/78/53 80/80/54 77/75/43
f 80/80/54 81/81/55 77/75/43
f 79/79/52 82/82/56 78/78/53
f 78/78/53 82/82/56 80/80/54
f 82/82/56 79/79/52 83/83/57
f 81/81/55 80/80/54 84/84/58
f 85/85/46 81/81/55 84/84/58
f 82/82/56 86/86/59 80/80/54
f 80/80/54 86/86/59 84/84/58
f 87/87/60 82/82/56 83/83/57
f 87/87/60 83/83/57 88/88/61
f 89/89/62 86/86/59 82/82/56
f 87/87/60 89/89/62 82/82/56
f 90/90/63 87/87/60 88/88/61
f 87/87/60 90/90/63 89/89/62
f 90/90/63 88/88/61 91/91/64
f 86/86/59 92/92/65 84/84/58
f 92/92/65 86/86/59 89/89/62
f 93/93/66 90/90/63 91/91/64
f 93/93/66 91/91/64 94/94/25
f 95/95/23 93/93/66 94/94/25
f 95/95/23 96/96/67 93/93/66
f 97/97/68 90/90/63 93/93/66
f 90/90/63 97/97/68 89/89/62
f 96/96/67 98/98/69 93/93/66
f 98/98/69 97/97/68 93/93/66
f 98/98/69 96/96/67 99/99/19
f 89/89/62 97/97/68 100/100/70
f 100/100/70 97/97/68 98/98/69
f 101/101/71 98/98/69 99/99/19
f 101/101/71 100/100/70 98/98/69
f 101/101/71 99/99/19 102/102/18
f 103/103/72 89/89/62 100/100/70
f 103/103/72 92/92/65 89/89/62
f 104/104/73 100/100/70 101/101/71
f 103/103/72 100/100/70 104/104/73
f 105/105/73 101/101/71 102/102/18
f 105/105/73 104/104/73 101/101/71
f 105/105/73 102/102/18 106/106/17
f 107/107/74 103/103/72 104/104/73
f 107/107/74 104/104/73 105/105/73
f 107/107/74 92/92/65 103/103/72
f 108/108/74 105/105/73 106/106/17
f 108/108/74 107/107/74 105/105/73
f 92/92/65 107/107/74 108/108/74
f 84/84/58 92/92/65 108/108/74
f 109/109/6 108/108/74 106/106/17
f 85/85/46 84/84/58 108/108/74
f 110/110/48 108/108/74 109/109/6
f 110/110/48 85/85/46 108/108/74
f 113/111/52 112/112/51 111/113/75
f 114/114/76 113/111/52 111/113/75
f 114/114/76 111/113/75 115/115/77
f 111/113/75 116/116/37 115/115/77
f 115/115/77 116/116/37 117/117/78
f 114/114/76 118/118/79 113/111/52
f 118/118/79 119/119/52 113/111/52
f 120/120/57 119/119/52 118/118/79
f 115/115/77 121/121/77 114/114/76
f 121/121/77 118/118/79 114/114/76
f 122/122/80 115/115/77 117/117/78
f 122/122/80 117/117/78 123/123/34
f 124/124/81 121/121/77 115/115/77
f 122/122/80 124/124/81 115/115/77
f 125/125/82 122/122/80 123/123/34
f 125/125/82 123/123/34 126/126/7
f 127/127/82 124/124/81 122/122/80
f 125/125/82 127/127/82 122/122/80
f 124/124/81 128/128/83 121/121/77
f 128/128/83 124/124/81 127/127/82
f 129/129/84 127/127/82 125/125/82
f 128/128/83 127/127/82 129/129/84
f 130/130/84 125/125/82 126/126/7
f 130/130/84 129/129/84 125/125/82
f 131/131/85 130/130/84 126/126/7
f 132/132/33 130/130/84 131/131/85
f 130/130/84 132/132/33 133/133/31
f 128/128/83 129/129/84 134/134/86
f 134/134/86 129/129/84 130/130/84
f 128/128/83 135/135/87 121/121/77
f 128/128/83 134/134/86 135/135/87
f 118/118/79 121/121/77 135/135/87
f 136/136/88 134/134/86 130/130/84
f 136/136/88 130/130/84 133/133/31
f 134/134/86 137/137/89 135/135/87
f 137/137/89 134/134/86 136/136/88
f 138/138/90 118/118/79 135/135/87
f 138/138/90 135/135/87 137/137/89
f 138/138/90 120/120/57 118/118/79
f 136/136/88 133/133/31 139/139/89
f 139/139/89 137/137/89 136/136/88
f 133/133/31 140/140/91 139/139/89
f 141/141/92 138/138/90 137/137/89
f 138/138/90 141/141/92 120/120/57
f 141/141/92 137/137/89 139/139/89
f 141/141/92 142/142/61 120/120/57
f 143/143/93 139/139/89 140/140/91
f 143/143/93 141/141/92 139/139/89
f 142/142/61 141/141/92 143/143/93
f 144/144/27 143/143/93 140/140/91
f 145/145/64 142/142/61 143/143/93
f 144/144/27 146/146/25 143/143/93
f 146/146/25 145/145/64 143/143/93
f 149/147/11 148/148/94 147/149/95
f 149/147/11 150/150/96 148/148/94
f 148/148/94 151/151/97 147/149/95
f 147/149/95 151/151/97 152/152/98
f 150/150/96 153/153/99 148/148/94
f 148/148/94 153/153/99 151/151/97
f 150/150/96 152/152/98 154/154/100
f 151/151/97 154/154/100 152/152/98
f 153/153/99 150/150/96 154/154/100
f 153/153/99 154/154/100 151/151/97
f 157/155/101 156/156/6 155/157/17
f 158/158/15 156/156/6 157/155/101
f 159/159/102 157/155/101 155/157/17
f 159/159/102 155/157/17 160/160/16
f 161/161/103 158/158/15 157/155/101
f 158/158/15 161/161/103 160/160/16
f 161/161/103 157/155/101 159/159/102
f 162/162/104 159/159/102 160/160/16
f 161/161/103 162/162/104 160/160/16
f 162/162/104 161/161/103 159/159/102
f 165/163/6 164/164/15 163/165/105
f 165/163/6 163/165/105 166/166/7
f 164/164/15 167/167/106 163/165/105
f 167/167/106 164/164/15 168/168/14
f 163/165/105 169/169/107 166/166/7
f 170/170/108 167/167/106 168/168/14
f 170/170/108 168/168/14 166/166/7
f 163/165/105 167/167/106 170/170/108
f 169/169/107 170/170/108 166/166/7
f 169/169/107 163/165/105 170/170/108
f 173/171/109 172/172/2 171/173/13
f 174/174/110 172/172/2 173/171/109
f 175/175/111 173/171/109 171/173/13
f 176/176/112 174/174/110 173/171/109
f 176/176/112 173/171/109 175/175/111
f 174/174/110 176/176/112 177/177/113
f 177/177/113 176/176/112 175/175/111
f 177/177/113 175/175/111 171/173/13
f 178/178/16 174/174/110 177/177/113
f 178/178/16 177/177/113 171/173/13
f 181/179/114 180/180/115 179/181/14
f 182/182/85 180/180/115 181/179/114
f 183/183/116 181/179/114 179/181/14
f 184/184/117 182/182/85 181/179/114
f 184/184/117 181/179/114 183/183/116
f 182/182/85 184/184/117 185/185/118
f 185/185/118 184/184/117 183/183/116
f 185/185/118 183/183/116 179/181/14
f 186/186/119 182/182/85 185/185/118
f 186/186/119 185/185/118 179/181/14
