# Blender v2.93.6 OBJ File: ''
# www.blender.org
mtllib Chest.mtl
o chest2
v -1.609348 1.019268 0.590490
v -0.849088 1.019270 -1.360638
v -1.511812 1.223877 0.303839
v -0.971831 1.226107 -1.082297
v 1.655155 1.021699 -0.396289
v 0.894824 1.015810 1.554784
v 1.013565 1.216718 1.277385
v 1.553891 1.233992 -0.108769
v 0.811736 -0.003255 1.418219
v 1.500133 -0.003255 -0.345625
v -0.763701 -0.003254 -1.219398
v -1.452081 -0.003255 0.544450
v -1.626781 1.313720 0.595453
v -1.609348 1.019268 0.590490
v -1.511812 1.223877 0.303839
v -1.594253 1.633516 0.477946
v -1.493249 1.533463 0.230248
v -1.533299 1.915666 0.282808
v -1.446254 1.749578 0.079026
v -1.413642 2.109680 -0.035439
v -1.364492 1.864266 -0.137688
v -1.275867 2.164799 -0.403175
v -1.264609 1.894434 -0.403893
v -1.129526 2.118815 -0.768748
v -1.159588 1.874152 -0.666718
v -1.002256 1.915666 -1.082225
v -1.073640 1.751081 -0.877451
v -0.916536 1.635396 -1.268755
v -1.008112 1.537208 -1.019804
v -0.860057 1.313724 -1.375418
v -0.971831 1.226107 -1.082297
v -0.849088 1.019270 -1.360638
v 1.668936 1.318583 -0.401536
v 1.655155 1.021699 -0.396289
v 1.553891 1.233992 -0.108769
v 1.636774 1.690454 -0.283926
v 1.536674 1.595031 -0.037853
v 1.575364 1.969780 -0.086450
v 1.490217 1.756557 0.112929
v 1.456129 2.119783 0.230949
v 1.409370 1.877056 0.327360
v 1.317822 2.163764 0.600444
v 1.309446 1.894766 0.593884
v 1.171969 2.106643 0.964223
v 1.204351 1.862045 0.856397
v 1.044239 1.910628 1.278517
v 1.117380 1.744804 1.069423
v 0.958950 1.627535 1.462689
v 1.051257 1.527497 1.212220
v 0.902084 1.306795 1.569229
v 1.013565 1.216718 1.277385
v 0.894824 1.015810 1.554784
v -0.809634 1.345852 0.779444
v -0.883188 0.971725 0.726849
v -0.751217 0.638709 0.753148
v -0.510797 1.564896 0.892679
v -0.483478 0.442970 0.854867
v -0.153171 0.442970 0.980183
v -0.141298 1.564896 1.032453
v 0.097662 0.638709 1.075485
v 0.139944 1.345852 1.139034
v 0.222154 0.971725 1.146934
v -1.511812 1.223877 0.303839
v -0.971831 1.226107 -1.082297
v -1.493249 1.533463 0.230248
v -1.446254 1.749578 0.079026
v -1.008112 1.537208 -1.019804
v -1.073640 1.751081 -0.877451
v -1.264609 1.894434 -0.403893
v -1.159588 1.874152 -0.666718
v -1.364492 1.864266 -0.137688
v 1.553891 1.233992 -0.108769
v 1.013565 1.216718 1.277385
v 1.051257 1.527497 1.212220
v 1.117380 1.744804 1.069423
v 1.536674 1.595031 -0.037853
v 1.490217 1.756557 0.112929
v 1.309446 1.894766 0.593884
v 1.204351 1.862045 0.856397
v 1.409370 1.877056 0.327360
v 0.927175 2.215286 0.443704
v 1.317822 2.163764 0.600444
v 1.171969 2.106643 0.964223
v 0.780602 2.158667 0.807368
v 0.894074 2.112251 0.429968
v 0.652143 1.963153 1.121536
v 1.044239 1.910628 1.278517
v 0.763693 2.061822 0.750769
v 0.028212 2.143412 0.101918
v 0.569621 1.680297 1.307194
v 0.958950 1.627535 1.462689
v 0.649312 1.887685 1.027864
v -0.104646 2.093206 0.437140
v -0.837613 2.112264 -0.226269
v -0.220843 1.919292 0.726856
v -0.962467 2.062282 0.096804
v -0.870884 2.215302 -0.239521
v 0.575417 1.635755 1.191440
v -1.011723 2.159184 0.126523
v -1.275867 2.164799 -0.403175
v -1.413642 2.109680 -0.035439
v -1.533299 1.915666 0.282808
v -1.071313 1.888591 0.376176
v -1.134434 1.964170 0.443075
v -1.594253 1.633516 0.477946
v -1.128748 1.636870 0.546329
v -1.199879 1.681550 0.635607
v -1.626781 1.313720 0.595453
v -0.289205 1.667467 0.900605
v -1.161083 1.239425 0.647923
v -1.236897 1.197945 0.750505
v -1.609348 1.019268 0.590490
v 0.526625 1.238099 1.286459
v 0.515526 1.196456 1.415215
v 0.894824 1.015810 1.554784
v 0.902084 1.306795 1.569229
v 1.456129 2.119783 0.230949
v 1.317822 2.163764 0.600444
v 0.927175 2.215286 0.443704
v 1.068594 2.170802 0.075703
v 1.190940 1.969154 -0.240209
v 1.575364 1.969780 -0.086450
v 1.636774 1.690454 -0.283926
v 1.019428 2.072630 0.105161
v 0.894074 2.112251 0.429968
v 0.028212 2.143412 0.101918
v 1.127942 1.893029 -0.173644
v 1.256820 1.689591 -0.435488
v 1.668936 1.318583 -0.401536
v 1.185724 1.644032 -0.346238
v 1.293458 1.216044 -0.550899
v 1.655155 1.021699 -0.396289
v 1.217679 1.256721 -0.448302
v 0.346017 1.674643 -0.700574
v -0.470355 1.255423 -1.086958
v -0.459308 1.214587 -1.215737
v -0.849088 1.019270 -1.360638
v -0.860057 1.313724 -1.375418
v -0.916536 1.635396 -1.268755
v -0.518726 1.642945 -0.991452
v 0.277316 1.923745 -0.524276
v -0.512973 1.688370 -1.107178
v -0.592916 1.892152 -0.825416
v 0.161535 2.103569 -0.235126
v -0.595881 1.968169 -0.918753
v -1.002256 1.915666 -1.082225
v -0.706841 2.072198 -0.548843
v -0.837613 2.112264 -0.226269
v -0.723842 2.170317 -0.605185
v -1.129526 2.118815 -0.768748
v -0.870884 2.215302 -0.239521
v -1.275867 2.164799 -0.403175
v -0.809634 1.345852 0.779444
v -0.954363 0.977615 0.980595
v -0.883188 0.971725 0.726849
v -0.751217 0.638709 0.753148
v -0.896416 1.288308 1.015898
v -0.510797 1.564896 0.892679
v -0.847562 0.709220 1.008537
v -0.583013 0.512686 1.109372
v -0.483478 0.442970 0.854867
v -0.153171 0.442970 0.980183
v -0.600453 1.512523 1.128325
v -0.257050 0.512686 1.233490
v 0.097662 0.638709 1.075485
v -0.234652 1.512523 1.267090
v -0.141298 1.564896 1.032453
v -0.009828 0.709220 1.327727
v 0.222154 0.971725 1.146934
v 0.043681 1.288308 1.372828
v 0.139944 1.345852 1.139034
v 0.098804 0.977615 1.381705
v -1.609348 1.019268 0.590490
v 0.894824 1.015810 1.554784
v 0.514629 0.812142 1.380160
v 0.811736 -0.003255 1.418219
v -1.190903 0.811979 0.731631
v -1.452081 -0.003255 0.544450
v 0.493371 0.198250 1.308306
v -1.124332 0.198092 0.693377
v 0.980611 0.812056 1.259498
v 0.811736 -0.003255 1.418219
v 0.894824 1.015810 1.554784
v 1.655155 1.021699 -0.396289
v 0.921815 0.198167 1.196047
v 1.500133 -0.003255 -0.345625
v 1.509669 0.812057 -0.089285
v 1.419344 0.198167 -0.076595
v -0.763701 -0.003254 -1.219398
v -0.849088 1.019270 -1.360638
v -0.937465 0.812057 -1.050398
v -1.609348 1.019268 0.590490
v -0.877930 0.198168 -0.984090
v -1.471902 0.812056 0.320955
v -1.383214 0.198167 0.307076
v -1.452081 -0.003255 0.544450
v 1.500133 -0.003255 -0.345625
v 1.655155 1.021699 -0.396289
v 1.284298 0.812137 -0.520564
v -0.849088 1.019270 -1.360638
v 1.213004 0.198245 -0.480119
v -0.436144 0.811972 -1.173807
v -0.404765 0.198087 -1.094239
v -0.763701 -0.003254 -1.219398
vt 0.246084 0.513580
vt 0.015640 0.424711
vt 0.318505 0.426268
vt 0.066596 0.513946
vt 0.066596 0.513946
vt 0.015640 0.424711
vt 0.318504 0.426268
vt 0.246084 0.513580
vt 0.003052 0.006762
vt 0.003052 0.006762
vt 0.717705 0.009010
vt 0.717705 0.009010
vt 0.664015 0.423975
vt 0.712940 0.515547
vt 0.641606 0.515547
vt 0.606352 0.515547
vt 0.628879 0.423978
vt 0.576520 0.515547
vt 0.592908 0.423978
vt 0.547534 0.515547
vt 0.553225 0.423978
vt 0.513542 0.515547
vt 0.513542 0.423978
vt 0.473726 0.515547
vt 0.476650 0.423978
vt 0.439751 0.515547
vt 0.439759 0.423978
vt 0.412588 0.515547
vt 0.403143 0.423978
vt 0.393220 0.515547
vt 0.370223 0.423975
vt 0.323645 0.515547
vt 0.664015 0.423975
vt 0.712940 0.515547
vt 0.641606 0.515547
vt 0.606352 0.515547
vt 0.628879 0.423978
vt 0.576520 0.515547
vt 0.592908 0.423978
vt 0.547534 0.515547
vt 0.553225 0.423978
vt 0.513542 0.515547
vt 0.513542 0.423978
vt 0.473726 0.515547
vt 0.476650 0.423978
vt 0.439751 0.515547
vt 0.439759 0.423978
vt 0.412588 0.515547
vt 0.403143 0.423978
vt 0.385843 0.515547
vt 0.370223 0.423975
vt 0.323645 0.515547
vt 0.758893 0.256617
vt 0.731401 0.337149
vt 0.749949 0.428906
vt 0.823611 0.476610
vt 0.825681 0.214829
vt 0.906340 0.217380
vt 0.913094 0.476610
vt 0.971581 0.256617
vt 0.986319 0.425081
vt 0.999245 0.337149
vt 0.568528 0.769077
vt 0.124771 0.866902
vt 0.592252 0.867770
vt 0.518821 0.685026
vt 0.147141 0.767621
vt 0.196243 0.684441
vt 0.356657 0.628688
vt 0.267732 0.636577
vt 0.446021 0.640421
vt 0.582219 0.771397
vt 0.605531 0.870554
vt 0.138007 0.863836
vt 0.532921 0.686883
vt 0.160795 0.745132
vt 0.210315 0.682312
vt 0.371805 0.628560
vt 0.460646 0.641285
vt 0.282342 0.635447
vt 0.716659 0.635655
vt 0.716659 0.539055
vt 0.640653 0.539055
vt 0.640653 0.635655
vt 0.622192 0.539519
vt 0.640653 0.742549
vt 0.716659 0.742549
vt 0.622192 0.629364
vt 0.364129 0.534943
vt 0.640653 0.800178
vt 0.716659 0.806202
vt 0.622192 0.729504
vt 0.364129 0.629364
vt 0.106066 0.538375
vt 0.364129 0.723785
vt 0.106066 0.629364
vt 0.087605 0.537911
vt 0.622192 0.810944
vt 0.087605 0.635655
vt 0.003771 0.537911
vt 0.003771 0.635655
vt 0.003771 0.740261
vt 0.106066 0.727216
vt 0.087605 0.740261
vt 0.003771 0.806202
vt 0.106066 0.810944
vt 0.087605 0.800178
vt 0.003771 0.873945
vt 0.364129 0.810944
vt 0.106066 0.898104
vt 0.087605 0.918924
vt 0.003771 0.995259
vt 0.622192 0.898104
vt 0.640653 0.918924
vt 0.716659 0.995259
vt 0.716659 0.873945
vt 0.640653 0.539055
vt 0.716659 0.539055
vt 0.716659 0.635655
vt 0.640653 0.635655
vt 0.640653 0.742549
vt 0.716659 0.742549
vt 0.716659 0.806202
vt 0.622192 0.629364
vt 0.622192 0.539519
vt 0.364129 0.534943
vt 0.622192 0.729504
vt 0.640653 0.800178
vt 0.716659 0.873945
vt 0.622192 0.810944
vt 0.640653 0.918924
vt 0.716659 0.995259
vt 0.622192 0.898104
vt 0.364129 0.810944
vt 0.106066 0.898104
vt 0.087605 0.918924
vt 0.003771 0.995259
vt 0.003771 0.873945
vt 0.003771 0.806202
vt 0.106066 0.810944
vt 0.364129 0.723785
vt 0.087605 0.800178
vt 0.106066 0.727216
vt 0.364129 0.629364
vt 0.087605 0.740261
vt 0.003771 0.740261
vt 0.106066 0.629364
vt 0.106066 0.538375
vt 0.087605 0.635655
vt 0.003771 0.635655
vt 0.087605 0.537911
vt 0.003771 0.537911
vt 0.731401 0.337149
vt 0.745237 0.338957
vt 0.749949 0.428906
vt 0.758893 0.256617
vt 0.759792 0.410753
vt 0.823611 0.476610
vt 0.767477 0.277893
vt 0.828422 0.239464
vt 0.825681 0.214829
vt 0.906340 0.217380
vt 0.827081 0.455591
vt 0.903062 0.238826
vt 0.971581 0.256617
vt 0.913120 0.455591
vt 0.913094 0.476610
vt 0.961416 0.277893
vt 0.999245 0.337149
vt 0.975840 0.406928
vt 0.986319 0.425081
vt 0.984683 0.338957
vt 0.630907 0.331446
vt 0.717705 0.413852
vt 0.003052 0.418610
vt 0.717705 0.009010
vt 0.089347 0.331446
vt 0.003052 0.006762
vt 0.630907 0.084031
vt 0.089347 0.084031
vt 0.717705 0.413852
vt 0.717705 0.009010
vt 0.630907 0.331446
vt 0.003052 0.418610
vt 0.630907 0.084031
vt 0.003052 0.006762
vt 0.089347 0.331446
vt 0.089347 0.084031
vt 0.089347 0.331446
vt 0.003052 0.418610
vt 0.003052 0.006762
vt 0.717705 0.413852
vt 0.089347 0.084031
vt 0.630907 0.331446
vt 0.630907 0.084031
vt 0.717705 0.009010
vt 0.630907 0.331446
vt 0.717705 0.413852
vt 0.717705 0.009010
vt 0.003052 0.418610
vt 0.630907 0.084031
vt 0.089347 0.331446
vt 0.089347 0.084031
vt 0.003052 0.006762
vn -0.9326 -0.0036 -0.3608
vn -0.5022 -0.0551 -0.8630
vn -0.9127 -0.0652 0.4034
vn -0.9327 -0.0034 -0.3606
vn 0.9328 0.0027 0.3605
vn 0.4030 -0.0573 0.9134
vn 0.9527 -0.0443 -0.3006
vn 0.9326 0.0025 0.3609
vn -0.4026 -0.0962 -0.9103
vn 0.9098 -0.0969 -0.4035
vn 0.4006 -0.0969 0.9111
vn -0.9106 -0.0962 0.4019
vn -0.9121 0.2370 0.3346
vn -0.7431 0.3545 0.5675
vn -0.9317 -0.0383 -0.3612
vn -0.8054 0.5869 0.0836
vn -0.9326 -0.0001 -0.3609
vn -0.5658 0.8199 0.0873
vn -0.9323 -0.0319 -0.3603
vn -0.6711 0.6948 -0.2585
vn -0.9327 -0.0003 -0.3607
vn -0.3446 0.8260 -0.4461
vn -0.9309 -0.0349 -0.3637
vn -0.5424 0.5863 -0.6017
vn -0.9328 -0.0004 -0.3604
vn -0.1463 0.3607 -0.9211
vn -0.9310 -0.0392 -0.3630
vn -0.4509 0.2388 -0.8600
vn 0.9110 0.2451 -0.3316
vn 0.7429 0.3576 -0.5659
vn 0.9331 -0.0349 0.3578
vn 0.8051 0.5879 -0.0792
vn 0.9327 -0.0008 0.3605
vn 0.5655 0.8231 -0.0519
vn 0.9331 -0.0308 0.3584
vn 0.6707 0.6936 0.2629
vn 0.9327 -0.0009 0.3605
vn 0.3642 0.8128 0.4547
vn 0.9308 -0.0355 0.3637
vn 0.5413 0.5832 0.6057
vn 0.1606 0.3504 0.9227
vn 0.9309 -0.0408 0.3629
vn 0.4502 0.2376 0.8607
vn -0.8903 -0.3198 0.3242
vn 0.2602 0.0373 -0.9648
vn -0.8783 0.3712 0.3014
vn 0.3214 0.1514 -0.9348
vn 0.3264 -0.0545 -0.9437
vn 0.3827 -0.0523 -0.9224
vn 0.3803 0.1496 -0.9127
vn 0.4245 -0.3256 0.8449
vn 0.4344 0.3563 0.8272
vn 0.4457 0.0343 -0.8946
vn -0.9317 -0.0380 -0.3612
vn -0.9309 -0.0392 -0.3630
vn -0.9309 -0.0348 -0.3637
vn -0.9323 -0.0318 -0.3602
vn 0.9309 -0.0406 0.3629
vn 0.9308 -0.0354 0.3637
vn 0.6707 0.6936 0.2628
vn -0.0009 1.0000 0.0041
vn -0.2038 0.9424 0.2651
vn -0.1916 0.8452 0.4989
vn -0.1975 0.9446 0.2623
vn -0.0052 0.9999 0.0137
vn -0.5173 0.4274 0.7414
vn -0.1139 0.9467 0.3013
vn 0.0002 1.0000 0.0027
vn -0.2323 0.7544 0.6140
vn -0.0278 0.9429 0.3320
vn 0.0001 1.0000 0.0027
vn -0.4515 0.4607 0.7642
vn -0.0322 0.9431 0.3309
vn -0.8053 0.5869 0.0836
vn -0.1900 0.8462 0.4978
vn -0.7432 0.3545 0.5675
vn -0.1693 0.4585 0.8724
vn -0.1318 0.4284 0.8939
vn -0.3275 0.3784 0.8658
vn -0.3373 0.3482 0.8746
vn -0.3379 0.3472 0.8748
vn 0.5655 0.8231 -0.0518
vn -0.0043 0.9514 -0.3078
vn 0.1898 0.8500 -0.4914
vn 0.7429 0.3577 -0.5659
vn 0.0231 0.9448 -0.3269
vn 0.1002 0.4121 -0.9056
vn 0.1676 0.4692 -0.8670
vn 0.3371 0.3554 -0.8718
vn 0.9527 -0.0444 -0.3006
vn 0.3262 0.3874 -0.8623
vn 0.3372 0.3544 -0.8722
vn -0.1462 0.3607 -0.9211
vn 0.4494 0.4707 -0.7592
vn 0.2328 0.7531 -0.6153
vn 0.5077 0.4347 -0.7438
vn 0.1902 0.8490 -0.4930
vn 0.1117 0.9488 -0.2956
vn -0.5424 0.5862 -0.6018
vn 0.1976 0.9465 -0.2551
vn 0.1994 0.9447 -0.2605
vn -0.4632 -0.0353 0.8856
vn -0.4549 0.0423 0.8895
vn 0.3214 0.1513 -0.9348
vn -0.7784 0.0331 0.6269
vn -0.3883 -0.1482 0.9096
vn 0.3264 -0.0545 -0.9436
vn -0.3917 0.0994 0.9147
vn -0.3145 -0.1468 0.9378
vn 0.4245 -0.3255 0.8449
vn -0.3149 0.0979 0.9441
vn 0.3804 0.1496 -0.9127
vn 0.1461 0.0246 0.9890
vn 0.4456 0.0343 -0.8946
vn -0.2507 0.0376 0.9673
vn 0.4345 0.3563 0.8272
vn -0.2423 -0.0393 0.9694
vn -0.3638 -0.0752 0.9284
vn -0.3571 -0.0755 0.9310
vn -0.3642 -0.0641 0.9291
vn -0.3575 -0.0644 0.9317
vn 0.9304 -0.0766 0.3585
vn 0.9307 -0.0720 0.3587
vn 0.9295 -0.0767 0.3607
vn 0.9298 -0.0722 0.3609
vn -0.9304 -0.0864 -0.3563
vn -0.9127 -0.0652 0.4033
vn -0.9314 -0.0715 -0.3570
vn -0.9277 -0.0859 -0.3633
vn -0.9287 -0.0710 -0.3640
vn -0.9106 -0.0962 0.4020
vn 0.3583 -0.0721 -0.9308
vn -0.5022 -0.0552 -0.8630
vn 0.3586 -0.0652 -0.9312
vn 0.3626 -0.0718 -0.9292
vn 0.3629 -0.0649 -0.9296
vn -0.4026 -0.0961 -0.9103
usemtl it12_mat_CHEST2
s 1
f 3/1/1 2/2/2 1/3/3
f 4/4/4 2/2/2 3/1/1
f 7/5/5 6/6/6 5/7/7
f 8/8/8 7/5/5 5/7/7
f 11/9/9 10/10/10 9/11/11
f 12/12/12 11/9/9 9/11/11
f 15/13/1 14/14/3 13/15/13
f 15/13/1 13/15/13 16/16/14
f 17/17/15 15/13/1 16/16/14
f 17/17/15 16/16/14 18/18/16
f 19/19/17 17/17/15 18/18/16
f 18/18/16 20/20/18 19/19/17
f 20/20/18 21/21/19 19/19/17
f 20/20/18 22/22/20 21/21/19
f 22/22/20 23/23/21 21/21/19
f 22/22/20 24/24/22 23/23/21
f 24/24/22 25/25/23 23/23/21
f 24/24/22 26/26/24 25/25/23
f 26/26/24 27/27/25 25/25/23
f 26/26/24 28/28/26 27/27/25
f 28/28/26 29/29/27 27/27/25
f 28/28/26 30/30/28 29/29/27
f 30/30/28 31/31/4 29/29/27
f 30/30/28 32/32/2 31/31/4
f 35/33/8 34/34/7 33/35/29
f 35/33/8 33/35/29 36/36/30
f 37/37/31 35/33/8 36/36/30
f 37/37/31 36/36/30 38/38/32
f 39/39/33 37/37/31 38/38/32
f 38/38/32 40/40/34 39/39/33
f 40/40/34 41/41/35 39/39/33
f 40/40/34 42/42/36 41/41/35
f 42/42/36 43/43/37 41/41/35
f 42/42/36 44/44/38 43/43/37
f 44/44/38 45/45/39 43/43/37
f 44/44/38 46/46/40 45/45/39
f 46/46/40 47/47/37 45/45/39
f 46/46/40 48/48/41 47/47/37
f 48/48/41 49/49/42 47/47/37
f 48/48/41 50/50/43 49/49/42
f 50/50/43 51/51/5 49/49/42
f 50/50/43 52/52/6 51/51/5
f 55/53/44 54/54/45 53/55/46
f 55/53/44 53/55/46 56/56/47
f 57/57/48 55/53/44 56/56/47
f 58/58/49 57/57/48 56/56/47
f 58/58/49 56/56/47 59/59/50
f 60/60/51 58/58/49 59/59/50
f 60/60/51 59/59/50 61/61/52
f 61/61/52 62/62/53 60/60/51
f 65/63/54 64/64/4 63/65/1
f 65/63/54 66/66/17 64/64/4
f 67/67/55 64/64/4 66/66/17
f 67/67/55 66/66/17 68/68/25
f 66/66/17 69/69/21 68/68/25
f 69/69/21 70/70/56 68/68/25
f 66/66/17 71/71/57 69/69/21
f 74/72/58 73/73/5 72/74/8
f 75/75/33 74/72/58 72/74/8
f 72/74/8 76/76/31 75/75/33
f 76/76/31 77/77/33 75/75/33
f 77/77/33 78/78/33 75/75/33
f 78/78/33 79/79/59 75/75/33
f 77/77/33 80/80/35 78/78/33
f 83/81/38 82/82/60 81/83/61
f 84/84/62 83/81/38 81/83/61
f 81/83/61 85/85/61 84/84/62
f 84/84/62 86/86/63 83/81/38
f 86/86/63 87/87/40 83/81/38
f 85/85/61 88/88/64 84/84/62
f 84/84/62 88/88/64 86/86/63
f 88/88/64 85/85/61 89/89/65
f 87/87/40 86/86/63 90/90/66
f 91/91/41 87/87/40 90/90/66
f 88/88/64 92/92/63 86/86/63
f 86/86/63 92/92/63 90/90/66
f 93/93/67 88/88/64 89/89/65
f 93/93/67 89/89/65 94/94/68
f 95/95/69 92/92/63 88/88/64
f 93/93/67 95/95/69 88/88/64
f 96/96/70 93/93/67 94/94/68
f 93/93/67 96/96/70 95/95/69
f 96/96/70 94/94/68 97/97/71
f 92/92/63 98/98/72 90/90/66
f 98/98/72 92/92/63 95/95/69
f 99/99/73 96/96/70 97/97/71
f 99/99/73 97/97/71 100/100/20
f 101/101/18 99/99/73 100/100/20
f 101/101/18 102/102/74 99/99/73
f 103/103/75 96/96/70 99/99/73
f 96/96/70 103/103/75 95/95/69
f 102/102/74 104/104/75 99/99/73
f 104/104/75 103/103/75 99/99/73
f 104/104/75 102/102/74 105/105/76
f 95/95/69 103/103/75 106/106/77
f 106/106/77 103/103/75 104/104/75
f 107/107/78 104/104/75 105/105/76
f 107/107/78 106/106/77 104/104/75
f 107/107/78 105/105/76 108/108/13
f 109/109/79 95/95/69 106/106/77
f 109/109/79 98/98/72 95/95/69
f 110/110/80 106/106/77 107/107/78
f 109/109/79 106/106/77 110/110/80
f 111/111/80 107/107/78 108/108/13
f 111/111/80 110/110/80 107/107/78
f 111/111/80 108/108/13 112/112/3
f 113/113/81 109/109/79 110/110/80
f 113/113/81 110/110/80 111/111/80
f 113/113/81 98/98/72 109/109/79
f 114/114/81 111/111/80 112/112/3
f 114/114/81 113/113/81 111/111/80
f 98/98/72 113/113/81 114/114/81
f 90/90/66 98/98/72 114/114/81
f 115/115/6 114/114/81 112/112/3
f 91/91/41 90/90/66 114/114/81
f 116/116/43 114/114/81 115/115/6
f 116/116/43 91/91/41 114/114/81
f 119/117/61 118/118/60 117/119/82
f 120/120/83 119/117/61 117/119/82
f 120/120/83 117/119/82 121/121/84
f 117/119/82 122/122/32 121/121/84
f 121/121/84 122/122/32 123/123/85
f 120/120/83 124/124/86 119/117/61
f 124/124/86 125/125/61 119/117/61
f 126/126/65 125/125/61 124/124/86
f 121/121/84 127/127/84 120/120/83
f 127/127/84 124/124/86 120/120/83
f 128/128/87 121/121/84 123/123/85
f 128/128/87 123/123/85 129/129/29
f 130/130/88 127/127/84 121/121/84
f 128/128/87 130/130/88 121/121/84
f 131/131/89 128/128/87 129/129/29
f 131/131/89 129/129/29 132/132/90
f 133/133/89 130/130/88 128/128/87
f 131/131/89 133/133/89 128/128/87
f 130/130/88 134/134/91 127/127/84
f 134/134/91 130/130/88 133/133/89
f 135/135/92 133/133/89 131/131/89
f 134/134/91 133/133/89 135/135/92
f 136/136/92 131/131/89 132/132/90
f 136/136/92 135/135/92 131/131/89
f 137/137/2 136/136/92 132/132/90
f 138/138/28 136/136/92 137/137/2
f 136/136/92 138/138/28 139/139/93
f 134/134/91 135/135/92 140/140/94
f 140/140/94 135/135/92 136/136/92
f 134/134/91 141/141/95 127/127/84
f 134/134/91 140/140/94 141/141/95
f 124/124/86 127/127/84 141/141/95
f 142/142/96 140/140/94 136/136/92
f 142/142/96 136/136/92 139/139/93
f 140/140/94 143/143/97 141/141/95
f 143/143/97 140/140/94 142/142/96
f 144/144/98 124/124/86 141/141/95
f 144/144/98 141/141/95 143/143/97
f 144/144/98 126/126/65 124/124/86
f 142/142/96 139/139/93 145/145/97
f 145/145/97 143/143/97 142/142/96
f 139/139/93 146/146/99 145/145/97
f 147/147/100 144/144/98 143/143/97
f 144/144/98 147/147/100 126/126/65
f 147/147/100 143/143/97 145/145/97
f 147/147/100 148/148/71 126/126/65
f 149/149/101 145/145/97 146/146/99
f 149/149/101 147/147/100 145/145/97
f 148/148/71 147/147/100 149/149/101
f 150/150/22 149/149/101 146/146/99
f 151/151/68 148/148/71 149/149/101
f 150/150/22 152/152/20 149/149/101
f 152/152/20 151/151/68 149/149/101
f 155/153/45 154/154/102 153/155/46
f 155/153/45 156/156/44 154/154/102
f 154/154/102 157/157/103 153/155/46
f 158/158/104 153/155/46 157/157/103
f 156/156/44 159/159/105 154/154/102
f 157/157/103 154/154/102 159/159/105
f 160/160/106 159/159/105 156/156/44
f 161/161/107 160/160/106 156/156/44
f 161/161/107 162/162/49 160/160/106
f 163/163/108 157/157/103 159/159/105
f 163/163/108 159/159/105 160/160/106
f 163/163/108 158/158/104 157/157/103
f 162/162/49 164/164/109 160/160/106
f 163/163/108 160/160/106 164/164/109
f 162/162/49 165/165/110 164/164/109
f 163/163/108 166/166/111 158/158/104
f 166/166/111 163/163/108 164/164/109
f 166/166/111 167/167/112 158/158/104
f 165/165/110 168/168/113 164/164/109
f 166/166/111 164/164/109 168/168/113
f 165/165/110 169/169/114 168/168/113
f 166/166/111 170/170/115 167/167/112
f 170/170/115 166/166/111 168/168/113
f 170/170/115 171/171/116 167/167/112
f 169/169/114 172/172/117 168/168/113
f 169/169/114 171/171/116 172/172/117
f 168/168/113 172/172/117 170/170/115
f 171/171/116 170/170/115 172/172/117
f 175/173/118 174/174/6 173/175/3
f 176/176/11 174/174/6 175/173/118
f 177/177/119 175/173/118 173/175/3
f 177/177/119 173/175/3 178/178/12
f 179/179/120 176/176/11 175/173/118
f 176/176/11 179/179/120 178/178/12
f 179/179/120 175/173/118 177/177/119
f 180/180/121 177/177/119 178/178/12
f 179/179/120 180/180/121 178/178/12
f 180/180/121 179/179/120 177/177/119
f 183/181/6 182/182/11 181/183/122
f 183/181/6 181/183/122 184/184/7
f 182/182/11 185/185/123 181/183/122
f 185/185/123 182/182/11 186/186/10
f 181/183/122 187/187/124 184/184/7
f 188/188/125 185/185/123 186/186/10
f 188/188/125 186/186/10 184/184/7
f 181/183/122 185/185/123 188/188/125
f 187/187/124 188/188/125 184/184/7
f 187/187/124 181/183/122 188/188/125
f 191/189/126 190/190/2 189/191/9
f 192/192/127 190/190/2 191/189/126
f 193/193/128 191/189/126 189/191/9
f 194/194/129 192/192/127 191/189/126
f 194/194/129 191/189/126 193/193/128
f 192/192/127 194/194/129 195/195/130
f 195/195/130 194/194/129 193/193/128
f 195/195/130 193/193/128 189/191/9
f 196/196/131 192/192/127 195/195/130
f 196/196/131 195/195/130 189/191/9
f 199/197/132 198/198/90 197/199/10
f 200/200/133 198/198/90 199/197/132
f 201/201/134 199/197/132 197/199/10
f 202/202/135 200/200/133 199/197/132
f 202/202/135 199/197/132 201/201/134
f 200/200/133 202/202/135 203/203/136
f 203/203/136 202/202/135 201/201/134
f 203/203/136 201/201/134 197/199/10
f 204/204/137 200/200/133 203/203/136
f 204/204/137 203/203/136 197/199/10
