# Blender v2.93.6 OBJ File: ''
# www.blender.org
mtllib Chest.mtl
o chest_chest.001
v -0.352868 1.263584 1.591045
v -0.286533 1.550182 1.432365
v -0.286491 0.902424 1.418121
v -0.675005 1.550182 1.283241
v -0.741345 1.263584 1.441926
v -0.674968 0.902424 1.269002
v -1.857988 1.272850 0.845090
v -0.886268 1.272852 -1.683873
v -1.751228 1.562222 0.563005
v -0.995913 1.551208 -1.404656
v 1.916895 1.275886 -0.607158
v 0.945359 1.268531 1.921875
v 1.051567 1.551208 1.642197
v 1.806312 1.562222 -0.325686
v -1.860074 1.640558 0.846020
v -1.857988 1.272850 0.845090
v -1.751228 1.562222 0.563005
v -1.704212 2.137196 0.440410
v -1.629769 1.948887 0.246594
v -1.374399 2.388626 -0.418858
v -1.372327 2.146498 -0.424059
v -1.044779 2.137197 -1.278204
v -1.116426 1.941382 -1.090698
v -0.889318 1.640562 -1.683973
v -0.995913 1.551208 -1.404656
v -0.886268 1.272852 -1.683873
v -1.116426 1.941382 -1.090698
v -1.372327 2.146498 -0.424059
v -1.629769 1.948887 0.246594
v -0.995913 1.551208 -1.404656
v -1.751228 1.562222 0.563005
v 1.914266 1.646630 -0.606976
v 1.916895 1.275886 -0.607158
v 1.806312 1.562222 -0.325686
v 1.757771 2.140908 -0.197761
v 1.685253 1.948887 -0.009120
v 1.427733 2.387334 0.663366
v 1.428168 2.146498 0.661668
v 1.098592 2.130905 1.520951
v 1.172300 1.941381 1.328323
v 0.943888 1.631910 1.923164
v 1.051567 1.551208 1.642197
v 0.945359 1.268531 1.921875
v 1.806312 1.562222 -0.325686
v 1.051567 1.551208 1.642197
v 1.172300 1.941381 1.328323
v 1.685253 1.948887 -0.009120
v 1.428168 2.146498 0.661668
v -0.741345 1.263584 1.441926
v -0.286491 0.902424 1.418121
v -0.674968 0.902424 1.269002
v -0.352868 1.263584 1.591045
v -0.286533 1.550182 1.432365
v -0.675005 1.550182 1.283241
v -1.044779 2.137197 -1.278204
v -1.087983 2.387980 -0.305621
v -1.374399 2.388626 -0.418858
v -0.758160 2.139052 -1.165858
v -0.889318 1.640562 -1.683973
v 1.154416 2.387658 0.556800
v -0.602174 1.643597 -1.573350
v -0.886268 1.272852 -1.683873
v 1.916895 1.275886 -0.607158
v 1.484351 2.139980 -0.303879
v 1.427733 2.387334 0.663366
v 1.757771 2.140908 -0.197761
v 1.914266 1.646630 -0.606976
v 1.640589 1.645113 -0.712233
v -1.012591 1.088008 -1.296592
v -0.886268 1.272852 -1.683873
v -1.857988 1.272850 0.845090
v -1.701674 1.088008 0.496526
v -0.824411 -0.004064 -1.568042
v -0.886268 1.272852 -1.683873
v -0.963641 0.176494 -1.238398
v -1.625716 0.176494 0.478205
v -0.824411 -0.004064 -1.568042
v -1.734704 -0.004065 0.797751
v -1.857988 1.272850 0.845090
v -1.734704 -0.004065 0.797751
v 1.916895 1.275886 -0.607158
v 1.797797 -0.004064 -0.558263
v 1.672667 0.176494 -0.195578
v 1.749861 1.088008 -0.211164
v 1.068200 1.088008 1.552654
v 1.916895 1.275886 -0.607158
v 0.945359 1.268531 1.921875
v 1.020684 0.176493 1.496369
v 1.797797 -0.004064 -0.558263
v 0.887493 -0.004065 1.807522
v 0.945359 1.268531 1.921875
v 1.154416 2.387658 0.556800
v 1.427733 2.387334 0.663366
v 1.098592 2.130905 1.520951
v 0.825108 2.132478 1.414809
v -1.087983 2.387980 -0.305621
v 0.670114 1.634072 1.817872
v 0.943888 1.631910 1.923164
v 0.945359 1.268531 1.921875
v -1.857988 1.272850 0.845090
v -1.572750 1.636234 0.956716
v -1.860074 1.640558 0.846020
v -1.417459 2.134051 0.552804
v -1.374399 2.388626 -0.418858
v -1.704212 2.137196 0.440410
v -1.857988 1.272850 0.845090
v 0.945359 1.268531 1.921875
v 0.680876 1.088008 1.802018
v 0.887493 -0.004065 1.807522
v -1.542213 1.088008 0.946431
v -1.734704 -0.004065 0.797751
v 0.663399 0.176493 1.733261
v -1.480418 0.176493 0.908448
v 1.797797 -0.004064 -0.558263
v 1.916895 1.275886 -0.607158
v 1.659662 1.088008 -0.689110
v -0.886268 1.272852 -1.683873
v 1.593720 0.176494 -0.649852
v -0.582834 1.088008 -1.550937
v -0.550169 0.176494 -1.473591
v -0.824411 -0.004064 -1.568042
vt 0.859190 0.229653
vt 0.860207 0.509865
vt 0.755020 0.385902
vt 0.859191 0.229653
vt 0.755020 0.385902
vt 0.860207 0.509865
vt 0.131557 0.493935
vt 0.598209 0.582862
vt 0.127886 0.582862
vt 0.597651 0.493935
vt 0.597651 0.493935
vt 0.598209 0.582862
vt 0.127886 0.582862
vt 0.131557 0.493935
vt 0.120688 0.508142
vt 0.039626 0.577025
vt 0.087755 0.578600
vt 0.214090 0.578600
vt 0.235952 0.508142
vt 0.363114 0.578600
vt 0.363114 0.508142
vt 0.490699 0.578600
vt 0.481330 0.508142
vt 0.611154 0.578600
vt 0.598662 0.508142
vt 0.664026 0.578868
vt 0.202081 0.201944
vt 0.360768 0.264341
vt 0.518488 0.201944
vt 0.579591 0.074718
vt 0.134031 0.074718
vt 0.120688 0.508142
vt 0.039626 0.577025
vt 0.087755 0.578600
vt 0.214090 0.578600
vt 0.235952 0.508142
vt 0.363114 0.578600
vt 0.363114 0.508142
vt 0.490699 0.578600
vt 0.481330 0.508142
vt 0.611154 0.578600
vt 0.598662 0.508142
vt 0.664026 0.578868
vt 0.518489 0.201944
vt 0.579591 0.074718
vt 0.134032 0.074718
vt 0.202081 0.201944
vt 0.360768 0.264341
vt 0.755200 0.203876
vt 0.964428 0.203876
vt 0.755199 0.386511
vt 0.964429 0.386511
vt 0.964429 0.511551
vt 0.755199 0.511552
vt 0.003771 0.603965
vt 0.087605 0.603965
vt 0.003771 0.763979
vt 0.087605 0.763979
vt 0.003771 0.911687
vt 0.640653 0.603965
vt 0.087605 0.911687
vt 0.003771 0.992629
vt 0.716659 0.992629
vt 0.640653 0.763979
vt 0.716659 0.603965
vt 0.716659 0.763979
vt 0.716659 0.911687
vt 0.640653 0.911687
vt 0.718636 0.006762
vt 0.718636 0.493922
vt 0.630907 0.413763
vt 0.630907 0.084031
vt 0.718636 0.493922
vt 0.003052 0.493922
vt 0.089347 0.413763
vt 0.089347 0.084031
vt 0.003052 0.493922
vt 0.003052 0.006762
vt 0.718636 0.006762
vt 0.003052 0.006762
vt 0.089347 0.413763
vt 0.003052 0.493922
vt 0.718636 0.493922
vt 0.630907 0.413763
vt 0.630907 0.084031
vt 0.718636 0.493922
vt 0.718636 0.006762
vt 0.089347 0.084031
vt 0.003052 0.493922
vt 0.003052 0.006762
vt 0.718636 0.006762
vt 0.716659 0.763979
vt 0.716659 0.603965
vt 0.640653 0.603965
vt 0.640653 0.763979
vt 0.087605 0.603965
vt 0.640653 0.911687
vt 0.716659 0.911687
vt 0.716659 0.992629
vt 0.003771 0.992629
vt 0.087605 0.911687
vt 0.003771 0.911687
vt 0.087605 0.763979
vt 0.003771 0.603965
vt 0.003771 0.763979
vt 0.630907 0.413763
vt 0.718636 0.493922
vt 0.003052 0.493922
vt 0.718636 0.006762
vt 0.089347 0.413763
vt 0.003052 0.006762
vt 0.630907 0.084031
vt 0.089347 0.084031
vt 0.630907 0.413763
vt 0.718636 0.493922
vt 0.718636 0.006762
vt 0.003052 0.493922
vt 0.630907 0.084031
vt 0.089347 0.413763
vt 0.089347 0.084031
vt 0.003052 0.006762
vn 0.4268 -0.3256 0.8437
vn 0.4367 0.3563 0.8260
vn 0.1487 0.0246 0.9886
vn -0.8895 -0.3198 0.3265
vn -0.7768 0.0331 0.6289
vn -0.8774 0.3713 0.3037
vn -0.9336 -0.0036 -0.3584
vn -0.5044 -0.0552 -0.8617
vn -0.9117 -0.0652 0.4058
vn -0.9336 -0.0034 -0.3582
vn 0.9337 0.0027 0.3580
vn 0.4054 -0.0573 0.9123
vn 0.9519 -0.0443 -0.3031
vn 0.9335 0.0025 0.3585
vn -0.9336 -0.0035 -0.3584
vn -0.9117 -0.0653 0.4057
vn -0.9112 0.2370 0.3370
vn -0.8051 0.5868 0.0857
vn -0.9336 -0.0002 -0.3584
vn -0.6718 0.6948 -0.2567
vn -0.9336 -0.0004 -0.3582
vn -0.5440 0.5862 -0.6004
vn -0.9338 -0.0005 -0.3579
vn -0.4532 0.2388 -0.8588
vn -0.5044 -0.0551 -0.8617
vn -0.9336 0.0000 -0.3584
vn -0.9337 -0.0002 -0.3581
vn 0.9335 0.0024 0.3585
vn 0.9101 0.2451 -0.3340
vn 0.8049 0.5879 -0.0813
vn 0.9337 -0.0008 0.3581
vn 0.6714 0.6936 0.2611
vn 0.5429 0.5832 0.6043
vn 0.4525 0.2376 0.8595
vn 0.9337 -0.0009 0.3581
vn 0.4267 -0.3255 0.8438
vn 0.4366 0.3563 0.8261
vn -0.8775 0.3713 0.3037
vn -0.6718 0.6948 -0.2568
vn 0.0002 1.0000 0.0027
vn -0.5439 0.5862 -0.6005
vn 0.1888 0.8490 -0.4934
vn -0.4531 0.2388 -0.8589
vn -0.0009 1.0000 0.0041
vn 0.3348 0.3544 -0.8731
vn -0.5045 -0.0551 -0.8617
vn 0.9519 -0.0444 -0.3031
vn 0.1882 0.8501 -0.4919
vn 0.8049 0.5878 -0.0813
vn 0.9102 0.2451 -0.3340
vn 0.3348 0.3553 -0.8727
vn -0.9313 -0.0864 -0.3539
vn -0.9286 -0.0859 -0.3609
vn -0.5045 -0.0552 -0.8617
vn -0.4050 -0.0961 -0.9093
vn -0.9323 -0.0715 -0.3546
vn -0.9297 -0.0710 -0.3615
vn -0.4050 -0.0962 -0.9093
vn -0.9096 -0.0961 0.4043
vn -0.9117 -0.0652 0.4057
vn -0.9095 -0.0962 0.4043
vn 0.9308 -0.0723 0.3584
vn 0.9088 -0.0969 -0.4059
vn 0.9305 -0.0767 0.3583
vn 0.9313 -0.0765 0.3561
vn 0.4054 -0.0573 0.9124
vn 0.9316 -0.0720 0.3563
vn 0.4030 -0.0969 0.9101
vn -0.1902 0.8454 0.4992
vn -0.3356 0.3471 0.8757
vn -0.3350 0.3483 0.8755
vn -0.1887 0.8462 0.4983
vn -0.8051 0.5869 0.0857
vn -0.3614 -0.0752 0.9294
vn -0.3547 -0.0755 0.9319
vn -0.9096 -0.0962 0.4043
vn -0.3618 -0.0641 0.9301
vn -0.3551 -0.0644 0.9326
vn 0.3559 -0.0721 -0.9318
vn 0.3562 -0.0652 -0.9321
vn 0.3601 -0.0717 -0.9301
vn 0.3604 -0.0648 -0.9305
usemtl it06_mat_CHEST
s 1
f 3/1/1 2/2/2 1/3/3
f 6/4/4 5/5/5 4/6/6
f 9/7/7 8/8/8 7/9/9
f 10/10/10 8/8/8 9/7/7
f 13/11/11 12/12/12 11/13/13
f 14/14/14 13/11/11 11/13/13
f 17/15/15 16/16/16 15/17/17
f 17/15/15 15/17/17 18/18/18
f 19/19/19 17/15/15 18/18/18
f 18/18/18 20/20/20 19/19/19
f 20/20/20 21/21/21 19/19/19
f 20/20/20 22/22/22 21/21/21
f 22/22/22 23/23/23 21/21/21
f 22/22/22 24/24/24 23/23/23
f 24/24/24 25/25/10 23/23/23
f 24/24/24 26/26/25 25/25/10
f 29/27/26 28/28/26 27/29/27
f 30/30/10 29/27/26 27/29/27
f 29/27/26 30/30/10 31/31/7
f 34/32/28 33/33/13 32/34/29
f 34/32/28 32/34/29 35/35/30
f 36/36/31 34/32/28 35/35/30
f 35/35/30 37/37/32 36/36/31
f 37/37/32 38/38/31 36/36/31
f 37/37/32 39/39/33 38/38/31
f 39/39/33 40/40/31 38/38/31
f 39/39/33 41/41/34 40/40/31
f 41/41/34 42/42/11 40/40/31
f 41/41/34 43/43/12 42/42/11
f 46/44/31 45/45/11 44/46/28
f 44/46/28 47/47/35 46/44/31
f 47/47/35 48/48/35 46/44/31
f 51/49/4 50/50/36 49/51/5
f 50/50/36 52/52/3 49/51/5
f 52/52/3 53/53/37 49/51/5
f 53/53/37 54/54/38 49/51/5
f 57/55/39 56/56/40 55/57/41
f 56/56/40 58/58/42 55/57/41
f 59/59/43 55/57/41 58/58/42
f 56/56/40 60/60/44 58/58/42
f 61/61/45 59/59/43 58/58/42
f 59/59/43 61/61/45 62/62/46
f 62/62/46 61/61/45 63/63/47
f 60/60/44 64/64/48 58/58/42
f 61/61/45 58/58/42 64/64/48
f 60/60/44 65/65/32 64/64/48
f 65/65/32 66/66/49 64/64/48
f 64/64/48 66/66/49 67/67/50
f 61/61/45 68/68/51 63/63/47
f 68/68/51 67/67/50 63/63/47
f 68/68/51 61/61/45 64/64/48
f 68/68/51 64/64/48 67/67/50
f 71/69/16 70/70/25 69/71/52
f 72/72/53 71/69/16 69/71/52
f 69/71/52 74/73/54 73/74/55
f 75/75/56 69/71/52 73/74/55
f 72/72/53 69/71/52 75/75/56
f 76/76/57 72/72/53 75/75/56
f 76/76/57 75/75/56 77/77/58
f 78/78/59 76/76/57 77/77/58
f 79/79/60 72/72/53 76/76/57
f 80/80/61 79/79/60 76/76/57
f 83/81/62 82/82/63 81/83/13
f 84/84/64 83/81/62 81/83/13
f 84/84/64 85/85/65 83/81/62
f 85/85/65 84/84/64 86/86/13
f 87/87/66 85/85/65 86/86/13
f 85/85/65 88/88/67 83/81/62
f 83/81/62 88/88/67 89/89/63
f 88/88/67 90/90/68 89/89/63
f 90/90/68 88/88/67 85/85/65
f 91/91/12 90/90/68 85/85/65
f 94/92/33 93/93/32 92/94/44
f 95/95/69 94/92/33 92/94/44
f 95/95/69 92/94/44 96/96/40
f 94/92/33 95/95/69 97/97/70
f 98/98/34 94/92/33 97/97/70
f 98/98/34 97/97/70 99/99/12
f 99/99/12 97/97/70 100/100/9
f 97/97/70 101/101/71 100/100/9
f 97/97/70 95/95/69 101/101/71
f 101/101/71 102/102/17 100/100/9
f 103/103/72 95/95/69 96/96/40
f 95/95/69 103/103/72 101/101/71
f 101/101/71 103/103/72 102/102/17
f 103/103/72 96/96/40 104/104/20
f 103/103/72 105/105/73 102/102/17
f 105/105/73 103/103/72 104/104/20
f 108/106/74 107/107/12 106/108/9
f 109/109/68 107/107/12 108/106/74
f 110/110/75 108/106/74 106/108/9
f 110/110/75 106/108/9 111/111/76
f 112/112/77 109/109/68 108/106/74
f 109/109/68 112/112/77 111/111/76
f 112/112/77 108/106/74 110/110/75
f 113/113/78 110/110/75 111/111/76
f 112/112/77 113/113/78 111/111/76
f 113/113/78 112/112/77 110/110/75
f 116/114/79 115/115/13 114/116/63
f 117/117/46 115/115/13 116/114/79
f 118/118/80 116/114/79 114/116/63
f 119/119/81 117/117/46 116/114/79
f 119/119/81 116/114/79 118/118/80
f 117/117/46 119/119/81 120/120/82
f 120/120/82 119/119/81 118/118/80
f 120/120/82 118/118/80 114/116/63
f 121/121/58 117/117/46 120/120/82
f 121/121/58 120/120/82 114/116/63
